<?xml version="1.0" standalone="no"?>
<!DOCTYPE svg PUBLIC "-//W3C//DTD SVG 20010904//EN"
 "http://www.w3.org/TR/2001/REC-SVG-20010904/DTD/svg10.dtd">
<svg version="1.0" xmlns="http://www.w3.org/2000/svg"
 width="500.000000pt" height="500.000000pt" viewBox="0 0 500.000000 500.000000"
 preserveAspectRatio="xMidYMid meet">

<g transform="translate(0.000000,500.000000) scale(0.100000,-0.100000)"
fill="#000000" stroke="none">
<path d="M2293 4920 c-575 -56 -1093 -299 -1498 -705 -795 -794 -941 -2016
-358 -2980 188 -310 498 -620 808 -808 782 -473 1748 -473 2530 0 311 188 620
497 808 808 169 280 283 598 333 930 25 166 25 504 0 670 -80 536 -315 1004
-691 1380 -374 375 -851 614 -1375 690 -137 19 -428 27 -557 15z m565 -1037
c-149 -241 -273 -444 -275 -451 -4 -10 4 -13 33 -10 l39 3 313 445 c173 245
318 447 324 449 10 3 757 -237 771 -249 6 -5 -567 -488 -936 -791 -19 -15 -17
-17 34 -50 30 -19 89 -62 132 -97 l77 -63 80 56 c55 39 81 52 85 43 8 -26 196
-980 193 -983 -2 -1 -248 -58 -548 -125 -300 -67 -553 -124 -562 -126 -24 -7
120 -143 270 -254 149 -111 238 -198 298 -291 58 -89 138 -258 194 -408 l43
-113 -20 -42 c-28 -56 -115 -163 -166 -204 -23 -19 -69 -49 -102 -67 -59 -32
-194 -85 -219 -85 -7 0 -68 124 -137 275 -78 173 -128 273 -136 271 -7 -3 -10
1 -6 10 7 19 -166 403 -188 415 -9 4 -78 14 -153 21 -221 20 -436 -12 -521
-77 -17 -12 -45 -54 -64 -94 -19 -39 -38 -71 -41 -71 -9 0 -148 145 -185 193
l-30 38 -113 -46 c-62 -26 -118 -45 -126 -42 -16 6 -220 257 -209 257 28 1
327 41 331 45 3 2 -1 11 -8 20 -10 12 -44 15 -194 15 l-182 0 -53 176 c-29 97
-51 177 -49 179 2 1 81 -19 176 -45 246 -68 224 -65 220 -38 -3 19 -35 35
-222 110 -120 48 -220 89 -221 90 -4 6 30 407 35 411 3 3 92 -60 198 -140 107
-79 196 -143 198 -141 2 3 5 14 6 26 2 17 -41 59 -212 203 -118 100 -214 187
-212 193 11 40 176 414 182 411 4 -2 81 -110 171 -240 l164 -236 12 30 c12 28
4 45 -156 362 l-169 332 157 151 c86 84 183 177 216 208 l61 57 68 -327 c88
-426 83 -409 104 -389 14 15 13 49 -16 419 -18 222 -32 415 -32 430 0 26 11
31 303 146 166 66 303 119 305 117 2 -2 -31 -188 -72 -413 -42 -225 -76 -416
-76 -425 0 -13 5 -14 28 -6 28 9 33 24 172 489 l143 480 373 0 372 0 -270
-437z m-596 -2497 c31 -9 72 -22 90 -30 31 -13 23 -14 -113 -15 -218 -1 -289
-20 -412 -108 -27 -19 -51 -33 -52 -31 -2 2 13 33 34 68 41 72 85 104 176 127
61 15 197 10 277 -11z"/>
</g>
</svg>
